<svg id="图层_1" data-name="图层 1" xmlns="http://www.w3.org/2000/svg" viewBox="0 0 1860.01 798"><polyline points="104.51 221.5 36.51 221.5 37.51 7.5 1.51 7.5 2.51 220.5" fill="#fff" stroke="#000" stroke-miterlimit="10" stroke-width="3"/><path d="M6.51,220.5" transform="translate(0)" fill="#fff" stroke="#000" stroke-miterlimit="10" stroke-width="3"/><polyline points="37.08 7.89 133.08 7.51 135.93 221.5 233.93 220.11" fill="#fff" stroke="#000" stroke-miterlimit="10" stroke-width="3"/><polyline points="133.51 7.5 284.51 5.5 285.51 221.5 392.51 221.5" fill="#fff" stroke="#000" stroke-miterlimit="10" stroke-width="3"/><polyline points="284.51 5.5 429.51 5.5 429.51 221.5 532.51 221.5" fill="#fff" stroke="#000" stroke-miterlimit="10" stroke-width="3"/><polyline points="428.66 5.98 579.66 3.98 580.66 219.98 687.66 219.98" fill="#fff" stroke="#000" stroke-miterlimit="10" stroke-width="3"/><polyline points="581.66 3.98 726.66 3.98 726.66 219.98 830.51 220.5" fill="#fff" stroke="#000" stroke-miterlimit="10" stroke-width="3"/><polyline points="727.66 3.98 878.66 1.98 879.66 217.98 986.66 217.98" fill="#fff" stroke="#000" stroke-miterlimit="10" stroke-width="3"/><polyline points="1326.66 1.98 1471.66 1.98 1471.66 217.98 1510.51 218.5" fill="#fff" stroke="#000" stroke-miterlimit="10" stroke-width="3"/><rect x="902.51" y="105.5" width="41.5" height="10" fill="#fff" stroke="#000" stroke-miterlimit="10" stroke-width="0.75"/><rect x="902.51" y="116.5" width="41.5" height="10" fill="#fff" stroke="#000" stroke-miterlimit="10" stroke-width="0.75"/><rect x="902.51" y="94.5" width="41.5" height="10" fill="#fff" stroke="#000" stroke-miterlimit="10" stroke-width="0.75"/><rect x="902.51" y="53.5" width="41.5" height="10" fill="#fff" stroke="#000" stroke-miterlimit="10" stroke-width="0.75"/><rect x="902.51" y="63.5" width="41.5" height="10" fill="#fff" stroke="#000" stroke-miterlimit="10" stroke-width="0.75"/><rect x="902.51" y="73.5" width="41.5" height="10" fill="#fff" stroke="#000" stroke-miterlimit="10" stroke-width="0.75"/><rect x="902.51" y="83.5" width="41.5" height="10" fill="#fff" stroke="#000" stroke-miterlimit="10" stroke-width="0.75"/><rect x="902.51" y="127.5" width="41.5" height="10" fill="#fff" stroke="#000" stroke-miterlimit="10" stroke-width="0.75"/><rect x="902.51" y="138.5" width="41.5" height="10" fill="#fff" stroke="#000" stroke-miterlimit="10" stroke-width="0.75"/><rect x="952.24" y="105.29" width="41.5" height="10" fill="#fff" stroke="#000" stroke-miterlimit="10" stroke-width="0.75"/><rect x="952.24" y="116.29" width="41.5" height="10" fill="#fff" stroke="#000" stroke-miterlimit="10" stroke-width="0.75"/><rect x="952.24" y="94.29" width="41.5" height="10" fill="#fff" stroke="#000" stroke-miterlimit="10" stroke-width="0.75"/><rect x="952.24" y="53.29" width="41.5" height="10" fill="#fff" stroke="#000" stroke-miterlimit="10" stroke-width="0.75"/><rect x="952.24" y="63.29" width="41.5" height="10" fill="#fff" stroke="#000" stroke-miterlimit="10" stroke-width="0.75"/><rect x="952.24" y="73.29" width="41.5" height="10" fill="#fff" stroke="#000" stroke-miterlimit="10" stroke-width="0.75"/><rect x="952.24" y="83.29" width="41.5" height="10" fill="#fff" stroke="#000" stroke-miterlimit="10" stroke-width="0.75"/><rect x="952.24" y="127.29" width="41.5" height="10" fill="#fff" stroke="#000" stroke-miterlimit="10" stroke-width="0.75"/><rect x="952.24" y="138.29" width="41.5" height="10" fill="#fff" stroke="#000" stroke-miterlimit="10" stroke-width="0.75"/><rect x="1001.24" y="105.29" width="41.5" height="10" fill="#fff" stroke="#000" stroke-miterlimit="10" stroke-width="0.75"/><rect x="1001.24" y="116.29" width="41.5" height="10" fill="#fff" stroke="#000" stroke-miterlimit="10" stroke-width="0.75"/><rect x="1001.24" y="94.29" width="41.5" height="10" fill="#fff" stroke="#000" stroke-miterlimit="10" stroke-width="0.75"/><rect x="1001.24" y="53.29" width="41.5" height="10" fill="#fff" stroke="#000" stroke-miterlimit="10" stroke-width="0.75"/><rect x="1001.24" y="63.29" width="41.5" height="10" fill="#fff" stroke="#000" stroke-miterlimit="10" stroke-width="0.75"/><rect x="1001.24" y="73.29" width="41.5" height="10" fill="#fff" stroke="#000" stroke-miterlimit="10" stroke-width="0.75"/><rect x="1001.24" y="83.29" width="41.5" height="10" fill="#fff" stroke="#000" stroke-miterlimit="10" stroke-width="0.75"/><rect x="1001.24" y="127.29" width="41.5" height="10" fill="#fff" stroke="#000" stroke-miterlimit="10" stroke-width="0.75"/><rect x="1001.24" y="138.29" width="41.5" height="10" fill="#fff" stroke="#000" stroke-miterlimit="10" stroke-width="0.75"/><polygon points="1077.46 19.5 1146.05 19.5 1147.01 87 1076.51 86.06 1077.46 19.5" fill="#fff" stroke="#000" stroke-miterlimit="10" stroke-width="0.75"/><polygon points="1078.36 98.95 1146.95 98.95 1147.91 166.45 1077.41 165.51 1078.36 98.95" fill="#fff" stroke="#000" stroke-miterlimit="10" stroke-width="0.75"/><line x1="1049.51" y1="219.5" x2="1212.51" y2="220.5" fill="none" stroke="#000" stroke-miterlimit="10" stroke-width="3"/><line x1="1154.51" y1="4.5" x2="1154.51" y2="192.5" fill="none" stroke="#000" stroke-miterlimit="10" stroke-width="3"/><polyline points="1258.51 220.5 1324.51 220.5 1326.51 1.5 1227.51 1.5 878.66 1.98" fill="none" stroke="#000" stroke-miterlimit="10" stroke-width="3"/><polygon points="1335.69 16.44 1404.29 16.44 1405.24 83.94 1334.74 83 1335.69 16.44" fill="#fff" stroke="#000" stroke-miterlimit="10" stroke-width="0.75"/><polygon points="1336.69 99.44 1405.29 99.44 1406.24 166.94 1335.74 166 1336.69 99.44" fill="#fff" stroke="#000" stroke-miterlimit="10" stroke-width="0.75"/><path d="M1471.66,2" transform="translate(0)" fill="#fff" stroke="#000" stroke-miterlimit="10" stroke-width="3"/><polyline points="1471.66 1.98 1535.51 2.5 1536.51 218.5" fill="#fff" stroke="#000" stroke-miterlimit="10" stroke-width="3"/><polyline points="1535.51 2.5 1653.51 2.5 1654.51 215.5 1567.51 215.5" fill="#fff" stroke="#000" stroke-miterlimit="10" stroke-width="3"/><polyline points="1653.51 2.5 1776.51 3.5 1777.51 216.5 1688.51 216.5" fill="#fff" stroke="#000" stroke-miterlimit="10" stroke-width="3"/><polyline points="1776.51 3.5 1857.51 3.5 1858.51 214.5 1857.51 220.5 1803.51 220.5" fill="#fff" stroke="#000" stroke-miterlimit="10" stroke-width="3"/><polyline points="54.51 301.5 3.51 302.5 3.51 490.5 134.51 490.5 134.51 302.5 94.51 302.5" fill="#fff" stroke="#000" stroke-miterlimit="10" stroke-width="3"/><polyline points="136.51 490.5 439.51 490.5 438.51 298.5 386.51 299.5" fill="#fff" stroke="#000" stroke-miterlimit="10" stroke-width="3"/><line x1="134.51" y1="302.5" x2="198.51" y2="301.5" fill="none" stroke="#000" stroke-miterlimit="10" stroke-width="3"/><line x1="247.51" y1="300.5" x2="337.51" y2="300.5" fill="none" stroke="#000" stroke-miterlimit="10" stroke-width="3"/><polyline points="439.51 490.5 886.51 492.5 886.51 297.5 824.51 297.5" fill="#fff" stroke="#000" stroke-miterlimit="10" stroke-width="3"/><line x1="780.51" y1="298.5" x2="715.51" y2="298.5" fill="none" stroke="#000" stroke-miterlimit="10" stroke-width="3"/><line x1="667.51" y1="297.5" x2="576.51" y2="297.5" fill="none" stroke="#000" stroke-miterlimit="10" stroke-width="3"/><line x1="438.51" y1="298.5" x2="516.51" y2="298.5" fill="none" stroke="#000" stroke-miterlimit="10" stroke-width="3"/><polyline points="1392.51 499.5 1857.51 501.5 1856.51 388.5 1750.51 388.5" fill="#fff" stroke="#000" stroke-miterlimit="10" stroke-width="3"/><line x1="1693.51" y1="296.5" x2="1693.51" y2="496.5" fill="none" stroke="#000" stroke-miterlimit="10" stroke-width="3"/><line x1="1444.51" y1="295.5" x2="1635.51" y2="297.5" fill="none" stroke="#000" stroke-miterlimit="10" stroke-width="3"/><rect x="137.01" y="9" width="146" height="209" fill="#91c6c7"/><rect x="286.01" y="8" width="141" height="213" fill="#91c6c7"/><rect x="432.01" y="7" width="146" height="211" fill="#91c6c7"/><rect x="582.01" y="7" width="142" height="211" fill="#91c6c7"/><rect x="729.01" y="5" width="146" height="211" fill="#91c6c7"/><rect x="3.19" y="9.42" width="31.81" height="211" fill="#91c6c7"/><rect x="39.01" y="10" width="94" height="209" fill="#ce804d"/><rect x="1157.01" y="3" width="167" height="215" fill="#91c6c7"/><rect x="1474.01" y="5" width="60" height="211" fill="#91c6c7"/><rect x="1539.01" y="4" width="112" height="211" fill="#91c6c7"/><rect x="1656.01" y="4" width="118" height="211" fill="#91c6c7"/><rect x="136.01" y="304" width="300" height="184" fill="#91c6c7"/><rect x="441.01" y="300" width="444" height="188" fill="#91c6c7"/><rect x="1779.01" y="6" width="77" height="212" fill="#ce804d"/><rect x="1397.03" y="298.64" width="296" height="199.51" fill="#91c6c7"/><rect x="1695.59" y="390.4" width="160.41" height="108.6" fill="#91c6c7"/><rect x="23.87" y="408.29" width="41.5" height="10" fill="#fff" stroke="#000" stroke-miterlimit="10" stroke-width="0.75"/><rect x="23.87" y="419.29" width="41.5" height="10" fill="#fff" stroke="#000" stroke-miterlimit="10" stroke-width="0.75"/><rect x="23.87" y="397.29" width="41.5" height="10" fill="#fff" stroke="#000" stroke-miterlimit="10" stroke-width="0.75"/><rect x="23.87" y="356.29" width="41.5" height="10" fill="#fff" stroke="#000" stroke-miterlimit="10" stroke-width="0.75"/><rect x="23.87" y="366.29" width="41.5" height="10" fill="#fff" stroke="#000" stroke-miterlimit="10" stroke-width="0.75"/><rect x="23.87" y="376.29" width="41.5" height="10" fill="#fff" stroke="#000" stroke-miterlimit="10" stroke-width="0.75"/><rect x="23.87" y="386.29" width="41.5" height="10" fill="#fff" stroke="#000" stroke-miterlimit="10" stroke-width="0.75"/><rect x="23.87" y="430.29" width="41.5" height="10" fill="#fff" stroke="#000" stroke-miterlimit="10" stroke-width="0.75"/><rect x="23.87" y="441.29" width="41.5" height="10" fill="#fff" stroke="#000" stroke-miterlimit="10" stroke-width="0.75"/><rect x="73.6" y="408.08" width="41.5" height="10" fill="#fff" stroke="#000" stroke-miterlimit="10" stroke-width="0.75"/><rect x="73.6" y="419.08" width="41.5" height="10" fill="#fff" stroke="#000" stroke-miterlimit="10" stroke-width="0.75"/><rect x="73.6" y="397.08" width="41.5" height="10" fill="#fff" stroke="#000" stroke-miterlimit="10" stroke-width="0.75"/><rect x="73.6" y="356.08" width="41.5" height="10" fill="#fff" stroke="#000" stroke-miterlimit="10" stroke-width="0.75"/><rect x="73.6" y="366.08" width="41.5" height="10" fill="#fff" stroke="#000" stroke-miterlimit="10" stroke-width="0.75"/><rect x="73.6" y="376.08" width="41.5" height="10" fill="#fff" stroke="#000" stroke-miterlimit="10" stroke-width="0.75"/><rect x="73.6" y="386.08" width="41.5" height="10" fill="#fff" stroke="#000" stroke-miterlimit="10" stroke-width="0.75"/><rect x="73.6" y="430.08" width="41.5" height="10" fill="#fff" stroke="#000" stroke-miterlimit="10" stroke-width="0.75"/><rect x="73.6" y="441.08" width="41.5" height="10" fill="#fff" stroke="#000" stroke-miterlimit="10" stroke-width="0.75"/><line x1="1077.46" y1="19.5" x2="1147.01" y2="87" fill="none" stroke="#000" stroke-miterlimit="10" stroke-width="0.75"/><line x1="1076.51" y1="86.06" x2="1146.05" y2="19.5" fill="none" stroke="#000" stroke-miterlimit="10" stroke-width="0.75"/><line x1="1078.36" y1="98.95" x2="1147.91" y2="166.45" fill="none" stroke="#000" stroke-miterlimit="10" stroke-width="0.75"/><line x1="1077.41" y1="165.51" x2="1146.95" y2="98.95" fill="none" stroke="#000" stroke-miterlimit="10" stroke-width="0.75"/><line x1="1335.69" y1="16.44" x2="1405.24" y2="83.94" fill="none" stroke="#000" stroke-miterlimit="10" stroke-width="0.75"/><line x1="1334.74" y1="83" x2="1404.29" y2="16.44" fill="none" stroke="#000" stroke-miterlimit="10" stroke-width="0.75"/><line x1="1336.69" y1="99.44" x2="1406.24" y2="166.94" fill="none" stroke="#000" stroke-miterlimit="10" stroke-width="0.75"/><line x1="1335.74" y1="166" x2="1405.29" y2="99.44" fill="none" stroke="#000" stroke-miterlimit="10" stroke-width="0.75"/><rect x="22.01" y="357" width="43" height="93" fill="#060" opacity="0.53" style="isolation:isolate"/><rect x="73.01" y="357" width="43" height="93" fill="#060" opacity="0.53" style="isolation:isolate"/><rect x="901.01" y="55" width="43" height="93" fill="#060" opacity="0.53" style="isolation:isolate"/><rect x="952.01" y="54" width="43" height="93" fill="#060" opacity="0.53" style="isolation:isolate"/><rect x="1000.01" y="55" width="43" height="93" fill="#060" opacity="0.53" style="isolation:isolate"/><rect x="1078.01" y="21" width="67" height="63" fill="red" opacity="0.44" style="isolation:isolate"/><rect x="1079.01" y="101" width="67" height="63" fill="red" opacity="0.44" style="isolation:isolate"/><rect x="1337.01" y="18" width="67" height="63" fill="red" opacity="0.44" style="isolation:isolate"/><rect x="1337.01" y="100" width="69" height="67" fill="red" opacity="0.44" style="isolation:isolate"/><line x1="1324.01" y1="220" x2="1473.01" y2="218" fill="none" stroke="#000" stroke-miterlimit="10" stroke-width="3"/><line x1="3.19" y1="220.42" x2="3.51" y2="302.5" fill="none" stroke="#000" stroke-miterlimit="10" stroke-width="3"/><line x1="1857.51" y1="220.5" x2="1856.51" y2="388.5" fill="none" stroke="#000" stroke-miterlimit="10" stroke-width="3"/><path d="M889.34,298.5l509.17.5-3,200c-8,10.5-105.18,133.69-267.61,125C980.73,616.13,899.21,506.4,889,492.17" transform="translate(0)" fill="#91c6c7" stroke="#000" stroke-miterlimit="10" stroke-width="3"/><line x1="1146.09" y1="298.89" x2="1146.09" y2="623.66" fill="none" stroke="#000" stroke-miterlimit="10" stroke-width="3"/><path d="M957.16,299.91" transform="translate(0)" fill="#fff" stroke="#fff" stroke-miterlimit="10" stroke-width="3"/><rect x="954.51" y="281.5" width="57" height="17" fill="#fff" stroke="#fff" stroke-miterlimit="10" stroke-width="3"/><rect x="1264.51" y="282.5" width="57" height="17" fill="#fff" stroke="#fff" stroke-miterlimit="10" stroke-width="3"/><g style="isolation:isolate"><text transform="translate(5.9 93.02) scale(0.9 1)" font-size="27.65" font-family="MicrosoftYaHeiLight, Microsoft YaHei" letter-spacing="0.01em" style="isolation:isolate">储</text><text transform="translate(5.9 129.89) scale(0.9 1)" font-size="27.65" font-family="MicrosoftYaHeiLight, Microsoft YaHei" letter-spacing="0.01em" style="isolation:isolate">藏</text><text transform="translate(5.9 166.76) scale(0.9 1)" font-size="27.65" font-family="MicrosoftYaHeiLight, Microsoft YaHei" letter-spacing="0.01em" style="isolation:isolate">间</text></g><g style="isolation:isolate"><text transform="translate(56.98 93.31) scale(0.93 1)" font-size="61.87" font-family="MicrosoftYaHeiLight, Microsoft YaHei" style="isolation:isolate">男</text><text transform="translate(56.98 175.8) scale(0.93 1)" font-size="61.87" font-family="MicrosoftYaHeiLight, Microsoft YaHei" style="isolation:isolate">厕</text></g><g style="isolation:isolate"><text transform="translate(143.12 139.54) scale(1.32 1)" font-size="57.15" fill="#fff" font-family="ArialMT, Arial" letter-spacing="-0.09em" style="isolation:isolate">1</text><text transform="translate(143.12 139.54) scale(1.32 1)" font-size="57.15" fill="none" stroke="#000" stroke-miterlimit="10" font-family="ArialMT, Arial" letter-spacing="-0.09em" style="isolation:isolate">1</text><text transform="translate(174.24 139.54) scale(1.32 1)" font-size="57.15" fill="#fff" font-family="ArialMT, Arial" letter-spacing="-0.05em" style="isolation:isolate">4</text><text transform="translate(174.24 139.54) scale(1.32 1)" font-size="57.15" fill="none" stroke="#000" stroke-miterlimit="10" font-family="ArialMT, Arial" letter-spacing="-0.05em" style="isolation:isolate">4</text><text transform="translate(208.23 139.54) scale(1.32 1)" font-size="57.15" fill="#fff" font-family="ArialMT, Arial" letter-spacing="-0.09em" style="isolation:isolate">1</text><text transform="translate(208.23 139.54) scale(1.32 1)" font-size="57.15" fill="none" stroke="#000" stroke-miterlimit="10" font-family="ArialMT, Arial" letter-spacing="-0.09em" style="isolation:isolate">1</text><text transform="translate(239.36 139.54) scale(1.32 1)" font-size="57.15" fill="#fff" font-family="ArialMT, Arial" letter-spacing="0.01em" style="isolation:isolate">4</text><text transform="translate(239.36 139.54) scale(1.32 1)" font-size="57.15" fill="none" stroke="#000" stroke-miterlimit="10" font-family="ArialMT, Arial" letter-spacing="0.01em" style="isolation:isolate">4</text></g><g style="isolation:isolate"><text transform="translate(287.52 140.92) scale(1.32 1)" font-size="57.15" fill="#fff" font-family="ArialMT, Arial" letter-spacing="-0.09em" style="isolation:isolate">1</text><text transform="translate(287.52 140.92) scale(1.32 1)" font-size="57.15" fill="none" stroke="#000" stroke-miterlimit="10" font-family="ArialMT, Arial" letter-spacing="-0.09em" style="isolation:isolate">1</text><text transform="translate(318.64 140.92) scale(1.32 1)" font-size="57.15" fill="#fff" font-family="ArialMT, Arial" letter-spacing="-0.05em" style="isolation:isolate">4</text><text transform="translate(318.64 140.92) scale(1.32 1)" font-size="57.15" fill="none" stroke="#000" stroke-miterlimit="10" font-family="ArialMT, Arial" letter-spacing="-0.05em" style="isolation:isolate">4</text><text transform="translate(352.63 140.92) scale(1.32 1)" font-size="57.15" fill="#fff" font-family="ArialMT, Arial" letter-spacing="-0.03em" style="isolation:isolate">1</text><text transform="translate(352.63 140.92) scale(1.32 1)" font-size="57.15" fill="none" stroke="#000" stroke-miterlimit="10" font-family="ArialMT, Arial" letter-spacing="-0.03em" style="isolation:isolate">1</text><text transform="translate(388.27 140.92) scale(1.32 1)" font-size="57.15" fill="#fff" font-family="ArialMT, Arial" letter-spacing="0.01em" style="isolation:isolate">2</text><text transform="translate(388.27 140.92) scale(1.32 1)" font-size="57.15" fill="none" stroke="#000" stroke-miterlimit="10" font-family="ArialMT, Arial" letter-spacing="0.01em" style="isolation:isolate">2</text></g><g style="isolation:isolate"><text transform="translate(439.27 141.92) scale(1.32 1)" font-size="57.15" fill="#fff" font-family="ArialMT, Arial" letter-spacing="-0.09em" style="isolation:isolate">1</text><text transform="translate(439.27 141.92) scale(1.32 1)" font-size="57.15" fill="none" stroke="#000" stroke-miterlimit="10" font-family="ArialMT, Arial" letter-spacing="-0.09em" style="isolation:isolate">1</text><text transform="translate(470.39 141.92) scale(1.32 1)" font-size="57.15" fill="#fff" font-family="ArialMT, Arial" letter-spacing="-0.05em" style="isolation:isolate">4</text><text transform="translate(470.39 141.92) scale(1.32 1)" font-size="57.15" fill="none" stroke="#000" stroke-miterlimit="10" font-family="ArialMT, Arial" letter-spacing="-0.05em" style="isolation:isolate">4</text><text transform="translate(504.38 141.92) scale(1.32 1)" font-size="57.15" fill="#fff" font-family="ArialMT, Arial" letter-spacing="-0.07em" style="isolation:isolate">1</text><text transform="translate(504.38 141.92) scale(1.32 1)" font-size="57.15" fill="none" stroke="#000" stroke-miterlimit="10" font-family="ArialMT, Arial" letter-spacing="-0.07em" style="isolation:isolate">1</text><text transform="translate(537.04 141.92) scale(1.32 1)" font-size="57.15" fill="#fff" font-family="ArialMT, Arial" letter-spacing="0.01em" style="isolation:isolate">0</text><text transform="translate(537.04 141.92) scale(1.32 1)" font-size="57.15" fill="none" stroke="#000" stroke-miterlimit="10" font-family="ArialMT, Arial" letter-spacing="0.01em" style="isolation:isolate">0</text></g><g style="isolation:isolate"><text transform="translate(580.76 142.92) scale(1.32 1)" font-size="57.15" fill="#fff" font-family="ArialMT, Arial" letter-spacing="-0.09em" style="isolation:isolate">1</text><text transform="translate(580.76 142.92) scale(1.32 1)" font-size="57.15" fill="none" stroke="#000" stroke-miterlimit="10" font-family="ArialMT, Arial" letter-spacing="-0.09em" style="isolation:isolate">1</text><text transform="translate(611.88 142.92) scale(1.32 1)" font-size="57.15" fill="#fff" font-family="ArialMT, Arial" letter-spacing="-0.01em" style="isolation:isolate">4</text><text transform="translate(611.88 142.92) scale(1.32 1)" font-size="57.15" fill="none" stroke="#000" stroke-miterlimit="10" font-family="ArialMT, Arial" letter-spacing="-0.01em" style="isolation:isolate">4</text><text transform="translate(649.03 142.92) scale(1.32 1)" font-size="57.15" fill="#fff" font-family="ArialMT, Arial" style="isolation:isolate">0</text><text transform="translate(649.03 142.92) scale(1.32 1)" font-size="57.15" fill="none" stroke="#000" stroke-miterlimit="10" font-family="ArialMT, Arial" style="isolation:isolate">0</text><text transform="translate(686.92 142.92) scale(1.32 1)" font-size="57.15" fill="#fff" font-family="ArialMT, Arial" letter-spacing="0.01em" style="isolation:isolate">8</text><text transform="translate(686.92 142.92) scale(1.32 1)" font-size="57.15" fill="none" stroke="#000" stroke-miterlimit="10" font-family="ArialMT, Arial" letter-spacing="0.01em" style="isolation:isolate">8</text></g><g style="isolation:isolate"><text transform="translate(727.58 141.92) scale(1.32 1)" font-size="57.15" fill="#fff" font-family="ArialMT, Arial" letter-spacing="-0.09em" style="isolation:isolate">1</text><text transform="translate(727.58 141.92) scale(1.32 1)" font-size="57.15" fill="none" stroke="#000" stroke-miterlimit="10" font-family="ArialMT, Arial" letter-spacing="-0.09em" style="isolation:isolate">1</text><text transform="translate(758.7 141.92) scale(1.32 1)" font-size="57.15" fill="#fff" font-family="ArialMT, Arial" letter-spacing="-0.01em" style="isolation:isolate">4</text><text transform="translate(758.7 141.92) scale(1.32 1)" font-size="57.15" fill="none" stroke="#000" stroke-miterlimit="10" font-family="ArialMT, Arial" letter-spacing="-0.01em" style="isolation:isolate">4</text><text transform="translate(795.85 141.92) scale(1.32 1)" font-size="57.15" fill="#fff" font-family="ArialMT, Arial" style="isolation:isolate">0</text><text transform="translate(795.85 141.92) scale(1.32 1)" font-size="57.15" fill="none" stroke="#000" stroke-miterlimit="10" font-family="ArialMT, Arial" style="isolation:isolate">0</text><text transform="translate(833.86 141.92) scale(1.32 1)" font-size="57.15" fill="#fff" font-family="ArialMT, Arial" letter-spacing="0.01em" style="isolation:isolate">6</text><text transform="translate(833.86 141.92) scale(1.32 1)" font-size="57.15" fill="none" stroke="#000" stroke-miterlimit="10" font-family="ArialMT, Arial" letter-spacing="0.01em" style="isolation:isolate">6</text></g><g style="isolation:isolate"><text transform="translate(1534.52 132.65) scale(1.5 1)" font-size="40.93" fill="#fff" font-family="ArialMT, Arial" letter-spacing="-0.08em" style="isolation:isolate">1</text><text transform="translate(1534.52 132.65) scale(1.5 1)" font-size="40.93" fill="none" stroke="#000" stroke-miterlimit="10" font-family="ArialMT, Arial" letter-spacing="-0.08em" style="isolation:isolate">1</text><text transform="translate(1560.09 132.65) scale(1.5 1)" font-size="40.93" fill="#fff" font-family="ArialMT, Arial" style="isolation:isolate">4</text><text transform="translate(1560.09 132.65) scale(1.5 1)" font-size="40.93" fill="none" stroke="#000" stroke-miterlimit="10" font-family="ArialMT, Arial" style="isolation:isolate">4</text><text transform="translate(1590.5 132.65) scale(1.5 1)" font-size="40.93" fill="#fff" font-family="ArialMT, Arial" style="isolation:isolate">0</text><text transform="translate(1590.5 132.65) scale(1.5 1)" font-size="40.93" fill="none" stroke="#000" stroke-miterlimit="10" font-family="ArialMT, Arial" style="isolation:isolate">0</text><text transform="translate(1621.28 132.65) scale(1.5 1)" font-size="40.93" fill="#fff" font-family="ArialMT, Arial" letter-spacing="0.01em" style="isolation:isolate">4</text><text transform="translate(1621.28 132.65) scale(1.5 1)" font-size="40.93" fill="none" stroke="#000" stroke-miterlimit="10" font-family="ArialMT, Arial" letter-spacing="0.01em" style="isolation:isolate">4</text></g><g style="isolation:isolate"><text transform="translate(1656.52 134.03) scale(1.5 1)" font-size="40.93" fill="#fff" font-family="ArialMT, Arial" letter-spacing="-0.08em" style="isolation:isolate">1</text><text transform="translate(1656.52 134.03) scale(1.5 1)" font-size="40.93" fill="none" stroke="#000" stroke-miterlimit="10" font-family="ArialMT, Arial" letter-spacing="-0.08em" style="isolation:isolate">1</text><text transform="translate(1682.09 134.03) scale(1.5 1)" font-size="40.93" fill="#fff" font-family="ArialMT, Arial" style="isolation:isolate">4</text><text transform="translate(1682.09 134.03) scale(1.5 1)" font-size="40.93" fill="none" stroke="#000" stroke-miterlimit="10" font-family="ArialMT, Arial" style="isolation:isolate">4</text><text transform="translate(1712.5 134.03) scale(1.5 1)" font-size="40.93" fill="#fff" font-family="ArialMT, Arial" letter-spacing="-0.01em" style="isolation:isolate">0</text><text transform="translate(1712.5 134.03) scale(1.5 1)" font-size="40.93" fill="none" stroke="#000" stroke-miterlimit="10" font-family="ArialMT, Arial" letter-spacing="-0.01em" style="isolation:isolate">0</text><text transform="translate(1742.75 134.03) scale(1.5 1)" font-size="40.93" fill="#fff" font-family="ArialMT, Arial" style="isolation:isolate">2</text><text transform="translate(1742.75 134.03) scale(1.5 1)" font-size="40.93" fill="none" stroke="#000" stroke-miterlimit="10" font-family="ArialMT, Arial" style="isolation:isolate">2</text></g><g style="isolation:isolate"><text transform="translate(1791.12 97.83) scale(0.93 1)" font-size="61.87" font-family="MicrosoftYaHeiLight, Microsoft YaHei" style="isolation:isolate">女</text><text transform="translate(1791.12 180.32) scale(0.93 1)" font-size="61.87" font-family="MicrosoftYaHeiLight, Microsoft YaHei" style="isolation:isolate">厕</text></g><g style="isolation:isolate"><text transform="translate(201.52 418.98) scale(1.28 1)" font-size="68.58" fill="#fff" font-family="ArialMT, Arial" letter-spacing="-0.09em" style="isolation:isolate">1</text><text transform="translate(201.52 418.98) scale(1.28 1)" font-size="68.58" fill="none" stroke="#000" stroke-miterlimit="10" font-family="ArialMT, Arial" letter-spacing="-0.09em" style="isolation:isolate">1</text><text transform="translate(237.74 418.98) scale(1.28 1)" font-size="68.58" fill="#fff" font-family="ArialMT, Arial" letter-spacing="-0.01em" style="isolation:isolate">4</text><text transform="translate(237.74 418.98) scale(1.28 1)" font-size="68.58" fill="none" stroke="#000" stroke-miterlimit="10" font-family="ArialMT, Arial" letter-spacing="-0.01em" style="isolation:isolate">4</text><text transform="translate(280.97 418.98) scale(1.28 1)" font-size="68.58" fill="#fff" font-family="ArialMT, Arial" letter-spacing="0.01em" style="isolation:isolate">0</text><text transform="translate(280.97 418.98) scale(1.28 1)" font-size="68.58" fill="none" stroke="#000" stroke-miterlimit="10" font-family="ArialMT, Arial" letter-spacing="0.01em" style="isolation:isolate">0</text><text transform="translate(325.55 418.98) scale(1.28 1)" font-size="68.58" fill="#fff" font-family="ArialMT, Arial" letter-spacing="0.01em" style="isolation:isolate">9</text><text transform="translate(325.55 418.98) scale(1.28 1)" font-size="68.58" fill="none" stroke="#000" stroke-miterlimit="10" font-family="ArialMT, Arial" letter-spacing="0.01em" style="isolation:isolate">9</text></g><g style="isolation:isolate"><text transform="translate(580.9 417) scale(1.28 1)" font-size="68.58" fill="#fff" font-family="ArialMT, Arial" letter-spacing="-0.09em" style="isolation:isolate">1</text><text transform="translate(580.9 417) scale(1.28 1)" font-size="68.58" fill="none" stroke="#000" stroke-miterlimit="10" font-family="ArialMT, Arial" letter-spacing="-0.09em" style="isolation:isolate">1</text><text transform="translate(617.12 417) scale(1.28 1)" font-size="68.58" fill="#fff" font-family="ArialMT, Arial" letter-spacing="-0.01em" style="isolation:isolate">4</text><text transform="translate(617.12 417) scale(1.28 1)" font-size="68.58" fill="none" stroke="#000" stroke-miterlimit="10" font-family="ArialMT, Arial" letter-spacing="-0.01em" style="isolation:isolate">4</text><text transform="translate(660.35 417) scale(1.28 1)" font-size="68.58" fill="#fff" font-family="ArialMT, Arial" letter-spacing="-0.02em" style="isolation:isolate">0</text><text transform="translate(660.35 417) scale(1.28 1)" font-size="68.58" fill="none" stroke="#000" stroke-miterlimit="10" font-family="ArialMT, Arial" letter-spacing="-0.02em" style="isolation:isolate">0</text><text transform="translate(702.11 417) scale(1.28 1)" font-size="68.58" fill="#fff" font-family="ArialMT, Arial" letter-spacing="0.01em" style="isolation:isolate">7</text><text transform="translate(702.11 417) scale(1.28 1)" font-size="68.58" fill="none" stroke="#000" stroke-miterlimit="10" font-family="ArialMT, Arial" letter-spacing="0.01em" style="isolation:isolate">7</text></g><g style="isolation:isolate"><text transform="translate(935.31 421) scale(1.28 1)" font-size="68.58" fill="#fff" font-family="ArialMT, Arial" letter-spacing="-0.09em" style="isolation:isolate">1</text><text transform="translate(935.31 421) scale(1.28 1)" font-size="68.58" fill="none" stroke="#000" stroke-miterlimit="10" font-family="ArialMT, Arial" letter-spacing="-0.09em" style="isolation:isolate">1</text><text transform="translate(971.53 421) scale(1.28 1)" font-size="68.58" fill="#fff" font-family="ArialMT, Arial" letter-spacing="-0.01em" style="isolation:isolate">4</text><text transform="translate(971.53 421) scale(1.28 1)" font-size="68.58" fill="none" stroke="#000" stroke-miterlimit="10" font-family="ArialMT, Arial" letter-spacing="-0.01em" style="isolation:isolate">4</text><text transform="translate(1014.76 421) scale(1.28 1)" font-size="68.58" fill="#fff" font-family="ArialMT, Arial" style="isolation:isolate">0</text><text transform="translate(1014.76 421) scale(1.28 1)" font-size="68.58" fill="none" stroke="#000" stroke-miterlimit="10" font-family="ArialMT, Arial" style="isolation:isolate">0</text><text transform="translate(1058.47 421) scale(1.28 1)" font-size="68.58" fill="#fff" font-family="ArialMT, Arial" letter-spacing="0.01em" style="isolation:isolate">5</text><text transform="translate(1058.47 421) scale(1.28 1)" font-size="68.58" fill="none" stroke="#000" stroke-miterlimit="10" font-family="ArialMT, Arial" letter-spacing="0.01em" style="isolation:isolate">5</text></g><g style="isolation:isolate"><text transform="translate(1191.34 422.23) scale(1.28 1)" font-size="68.58" fill="#fff" font-family="ArialMT, Arial" letter-spacing="-0.09em" style="isolation:isolate">1</text><text transform="translate(1191.34 422.23) scale(1.28 1)" font-size="68.58" fill="none" stroke="#000" stroke-miterlimit="10" font-family="ArialMT, Arial" letter-spacing="-0.09em" style="isolation:isolate">1</text><text transform="translate(1227.56 422.23) scale(1.28 1)" font-size="68.58" fill="#fff" font-family="ArialMT, Arial" letter-spacing="-0.01em" style="isolation:isolate">4</text><text transform="translate(1227.56 422.23) scale(1.28 1)" font-size="68.58" fill="none" stroke="#000" stroke-miterlimit="10" font-family="ArialMT, Arial" letter-spacing="-0.01em" style="isolation:isolate">4</text><text transform="translate(1270.79 422.23) scale(1.28 1)" font-size="68.58" fill="#fff" font-family="ArialMT, Arial" style="isolation:isolate">0</text><text transform="translate(1270.79 422.23) scale(1.28 1)" font-size="68.58" fill="none" stroke="#000" stroke-miterlimit="10" font-family="ArialMT, Arial" style="isolation:isolate">0</text><text transform="translate(1314.55 422.23) scale(1.28 1)" font-size="68.58" fill="#fff" font-family="ArialMT, Arial" letter-spacing="0.01em" style="isolation:isolate">3</text><text transform="translate(1314.55 422.23) scale(1.28 1)" font-size="68.58" fill="none" stroke="#000" stroke-miterlimit="10" font-family="ArialMT, Arial" letter-spacing="0.01em" style="isolation:isolate">3</text></g><g style="isolation:isolate"><text transform="translate(1466.31 419.46) scale(1.28 1)" font-size="68.58" fill="#fff" font-family="ArialMT, Arial" letter-spacing="-0.09em" style="isolation:isolate">1</text><text transform="translate(1466.31 419.46) scale(1.28 1)" font-size="68.58" fill="none" stroke="#000" stroke-miterlimit="10" font-family="ArialMT, Arial" letter-spacing="-0.09em" style="isolation:isolate">1</text><text transform="translate(1502.53 419.46) scale(1.28 1)" font-size="68.58" fill="#fff" font-family="ArialMT, Arial" letter-spacing="-0.01em" style="isolation:isolate">4</text><text transform="translate(1502.53 419.46) scale(1.28 1)" font-size="68.58" fill="none" stroke="#000" stroke-miterlimit="10" font-family="ArialMT, Arial" letter-spacing="-0.01em" style="isolation:isolate">4</text><text transform="translate(1545.76 419.46) scale(1.28 1)" font-size="68.58" fill="#fff" font-family="ArialMT, Arial" letter-spacing="-0.07em" style="isolation:isolate">0</text><text transform="translate(1545.76 419.46) scale(1.28 1)" font-size="68.58" fill="none" stroke="#000" stroke-miterlimit="10" font-family="ArialMT, Arial" letter-spacing="-0.07em" style="isolation:isolate">0</text><text transform="translate(1583.29 419.46) scale(1.28 1)" font-size="68.58" fill="#fff" font-family="ArialMT, Arial" letter-spacing="0.01em" style="isolation:isolate">1</text><text transform="translate(1583.29 419.46) scale(1.28 1)" font-size="68.58" fill="none" stroke="#000" stroke-miterlimit="10" font-family="ArialMT, Arial" letter-spacing="0.01em" style="isolation:isolate">1</text></g><line x1="1411.98" y1="1.98" x2="1414.3" y2="221" fill="none" stroke="#000" stroke-miterlimit="10" stroke-width="3"/><rect x="1415.01" y="3" width="54" height="212" fill="#91c6c7"/><g style="isolation:isolate"><text transform="translate(1425.97 80.34)" font-size="34.03" font-family="MicrosoftYaHeiLight, Microsoft YaHei" letter-spacing="0.01em" style="isolation:isolate">管</text><text transform="translate(1425.97 125.72)" font-size="34.03" font-family="MicrosoftYaHeiLight, Microsoft YaHei" letter-spacing="0.01em" style="isolation:isolate">道</text><text transform="translate(1425.97 171.09)" font-size="34.03" font-family="MicrosoftYaHeiLight, Microsoft YaHei" letter-spacing="0.01em" style="isolation:isolate">井</text></g><g style="isolation:isolate"><text transform="translate(1486.71 105.76)" font-size="34.03" font-family="MicrosoftYaHeiLight, Microsoft YaHei" letter-spacing="0.01em" style="isolation:isolate">电</text><text transform="translate(1486.71 151.14)" font-size="34.03" font-family="MicrosoftYaHeiLight, Microsoft YaHei" letter-spacing="0.01em" style="isolation:isolate">井</text></g><g style="isolation:isolate"><text transform="translate(489.71 782.53) scale(0.91 1)" font-size="43.84" font-family="MicrosoftYaHeiLight, Microsoft YaHei" letter-spacing="0.02em" style="isolation:isolate">灭</text><text transform="translate(530.33 782.53) scale(0.91 1)" font-size="43.84" font-family="MicrosoftYaHeiLight, Microsoft YaHei" letter-spacing="-0.02em" style="isolation:isolate">火</text><text transform="translate(569.4 782.53) scale(0.91 1)" font-size="43.84" font-family="MicrosoftYaHeiLight, Microsoft YaHei" style="isolation:isolate">器</text></g><g style="isolation:isolate"><text transform="translate(783.27 784.54) scale(0.85 1)" font-size="47.6" font-family="MicrosoftYaHeiLight, Microsoft YaHei" letter-spacing="-0.02em" style="isolation:isolate">消</text><text transform="translate(822.98 784.54) scale(0.85 1)" font-size="47.6" font-family="MicrosoftYaHeiLight, Microsoft YaHei" letter-spacing="-0.02em" style="isolation:isolate">火</text><text transform="translate(862.5 784.54) scale(0.85 1)" font-size="47.6" font-family="MicrosoftYaHeiLight, Microsoft YaHei" letter-spacing="0.01em" style="isolation:isolate">栓</text></g><polygon points="995.84 739.75 1059.65 739.75 1060.54 797.55 994.96 796.75 995.84 739.75" fill="#fff" stroke="#000" stroke-miterlimit="10" stroke-width="0.75"/><line x1="995.84" y1="739.74" x2="1060.54" y2="797.55" fill="none" stroke="#000" stroke-miterlimit="10" stroke-width="0.75"/><line x1="994.95" y1="796.74" x2="1059.65" y2="739.74" fill="none" stroke="#000" stroke-miterlimit="10" stroke-width="0.75"/><rect x="996.44" y="741.49" width="62.33" height="53.95" fill="red" opacity="0.44" style="isolation:isolate"/><g style="isolation:isolate"><text transform="translate(1073.27 786.01) scale(0.9 1)" font-size="45.81" font-family="MicrosoftYaHeiLight, Microsoft YaHei" style="isolation:isolate">电</text><text transform="translate(1114.36 786.01) scale(0.9 1)" font-size="45.81" font-family="MicrosoftYaHeiLight, Microsoft YaHei" letter-spacing="0.01em" style="isolation:isolate">梯</text></g><g style="isolation:isolate"><text transform="translate(1324.86 783.82) scale(0.91 1)" font-size="43.84" font-family="MicrosoftYaHeiLight, Microsoft YaHei" letter-spacing="0.01em" style="isolation:isolate">安</text><text transform="translate(1365.25 783.82) scale(0.91 1)" font-size="43.84" font-family="MicrosoftYaHeiLight, Microsoft YaHei" letter-spacing="0.02em" style="isolation:isolate">全</text><text transform="translate(1405.96 783.82) scale(0.91 1)" font-size="43.84" font-family="MicrosoftYaHeiLight, Microsoft YaHei" letter-spacing="0.03em" style="isolation:isolate">通</text><text transform="translate(1446.89 783.82) scale(0.91 1)" font-size="43.84" font-family="MicrosoftYaHeiLight, Microsoft YaHei" style="isolation:isolate">道</text></g><path d="M220,346.56c7.73,0,7.74-12,0-12S212.28,346.56,220,346.56Z" transform="translate(0)" fill="#91c6c7"/><polygon points="66.31 312.83 71.58 323.96 83.34 325.75 74.83 334.41 76.84 346.65 66.31 340.87 55.79 346.65 57.8 334.41 49.29 325.75 61.05 323.96 66.31 312.83" fill="#00b460"/><polygon points="974.46 156.41 980.17 168.22 992.93 170.11 983.7 179.3 985.88 192.28 974.46 186.15 963.05 192.28 965.23 179.3 955.99 170.11 968.75 168.22 974.46 156.41" fill="#00b460"/><polygon points="1290.04 740.6 1297.94 757.11 1315.61 759.76 1302.83 772.62 1305.85 790.77 1290.04 782.2 1274.23 790.77 1277.25 772.62 1264.46 759.76 1282.13 757.11 1290.04 740.6" fill="#00b460"/><rect x="5.44" y="277.99" width="22.47" height="22.58" fill="#f43d00"/><rect x="12.39" y="271.97" width="8.17" height="6.92" fill="#f43d00"/><rect x="1110.4" y="195.29" width="22.47" height="22.58" fill="#f43d00"/><rect x="1117.35" y="189.27" width="8.17" height="6.92" fill="#f43d00"/><rect x="425.61" y="750.33" width="45.96" height="41.88" fill="#f43d00"/><rect x="439.82" y="739.17" width="16.71" height="12.84" fill="#f43d00"/><polygon points="917.27 194.88 906.94 202.84 910.89 215.72 923.65 215.72 927.59 202.84 917.27 194.88" fill="#3f95ff"/><polygon points="1298.83 198.22 1288.5 206.18 1292.45 219.06 1305.21 219.06 1309.15 206.18 1298.83 198.22" fill="#3f95ff"/><polygon points="1709.64 312.6 1696.06 322.43 1701.25 338.34 1718.04 338.34 1723.23 322.43 1709.64 312.6" fill="#3f95ff"/><polygon points="748.93 744.09 725.54 761.49 734.47 789.64 763.38 789.64 772.32 761.49 748.93 744.09" fill="#3f95ff"/></svg>